<mxfile host="Electron" modified="2024-02-07T13:45:01.442Z" agent="Mozilla/5.0 (Windows NT 10.0; Win64; x64) AppleWebKit/537.36 (KHTML, like Gecko) draw.io/23.0.2 Chrome/120.0.6099.109 Electron/28.1.0 Safari/537.36" etag="GVkdPZzFn1KgG2OR-DJF" version="23.0.2" type="device">
  <diagram name="Página-1" id="9hihOX0OBgIf1be3JVfu">
    <mxGraphModel dx="763" dy="531" grid="1" gridSize="10" guides="1" tooltips="1" connect="1" arrows="1" fold="1" page="1" pageScale="1" pageWidth="827" pageHeight="1169" math="0" shadow="0">
      <root>
        <mxCell id="0" />
        <mxCell id="1" parent="0" />
        <mxCell id="EfU0JayARY2HxQ_avZjF-4" style="edgeStyle=orthogonalEdgeStyle;rounded=0;orthogonalLoop=1;jettySize=auto;html=1;entryX=0;entryY=0.5;entryDx=0;entryDy=0;endArrow=none;endFill=0;" edge="1" parent="1" source="EfU0JayARY2HxQ_avZjF-1" target="EfU0JayARY2HxQ_avZjF-3">
          <mxGeometry relative="1" as="geometry">
            <mxPoint x="340" y="290" as="targetPoint" />
          </mxGeometry>
        </mxCell>
        <mxCell id="EfU0JayARY2HxQ_avZjF-1" value="Médico" style="whiteSpace=wrap;html=1;align=center;" vertex="1" parent="1">
          <mxGeometry x="140" y="260" width="120" height="60" as="geometry" />
        </mxCell>
        <mxCell id="EfU0JayARY2HxQ_avZjF-2" value="Paciente" style="whiteSpace=wrap;html=1;align=center;" vertex="1" parent="1">
          <mxGeometry x="550" y="260" width="120" height="60" as="geometry" />
        </mxCell>
        <mxCell id="EfU0JayARY2HxQ_avZjF-7" style="edgeStyle=orthogonalEdgeStyle;rounded=0;orthogonalLoop=1;jettySize=auto;html=1;entryX=0;entryY=0.5;entryDx=0;entryDy=0;endArrow=none;endFill=0;" edge="1" parent="1" source="EfU0JayARY2HxQ_avZjF-3" target="EfU0JayARY2HxQ_avZjF-2">
          <mxGeometry relative="1" as="geometry" />
        </mxCell>
        <mxCell id="EfU0JayARY2HxQ_avZjF-19" style="edgeStyle=orthogonalEdgeStyle;rounded=0;orthogonalLoop=1;jettySize=auto;html=1;entryX=0.5;entryY=1;entryDx=0;entryDy=0;endArrow=none;endFill=0;" edge="1" parent="1" source="EfU0JayARY2HxQ_avZjF-3" target="EfU0JayARY2HxQ_avZjF-18">
          <mxGeometry relative="1" as="geometry" />
        </mxCell>
        <mxCell id="EfU0JayARY2HxQ_avZjF-3" value="&lt;p style=&quot;line-height: 100%;&quot;&gt;&lt;font style=&quot;&quot;&gt;&lt;font style=&quot;&quot;&gt;&lt;b&gt;consultar&lt;/b&gt;&lt;/font&gt;&lt;/font&gt;&lt;/p&gt;&lt;p style=&quot;line-height: 100%;&quot;&gt;&lt;font style=&quot;&quot;&gt;&lt;font style=&quot;font-size: 7px;&quot;&gt;(pode ficar&amp;nbsp;em branco - tem que ter quando&lt;br&gt;&amp;nbsp;há um relacionamento &lt;br&gt;entre as entidades)&lt;/font&gt;&lt;/font&gt;&lt;/p&gt;" style="shape=rhombus;perimeter=rhombusPerimeter;whiteSpace=wrap;html=1;align=center;" vertex="1" parent="1">
          <mxGeometry x="320" y="240" width="170" height="100" as="geometry" />
        </mxCell>
        <mxCell id="EfU0JayARY2HxQ_avZjF-10" style="edgeStyle=orthogonalEdgeStyle;rounded=0;orthogonalLoop=1;jettySize=auto;html=1;entryX=0.5;entryY=0;entryDx=0;entryDy=0;endArrow=none;endFill=0;" edge="1" parent="1" source="EfU0JayARY2HxQ_avZjF-8" target="EfU0JayARY2HxQ_avZjF-1">
          <mxGeometry relative="1" as="geometry" />
        </mxCell>
        <mxCell id="EfU0JayARY2HxQ_avZjF-8" value="CRM" style="ellipse;whiteSpace=wrap;html=1;align=center;fontStyle=4;" vertex="1" parent="1">
          <mxGeometry x="150" y="120" width="100" height="40" as="geometry" />
        </mxCell>
        <mxCell id="EfU0JayARY2HxQ_avZjF-11" style="edgeStyle=orthogonalEdgeStyle;rounded=0;orthogonalLoop=1;jettySize=auto;html=1;entryX=0.5;entryY=1;entryDx=0;entryDy=0;endArrow=none;endFill=0;" edge="1" parent="1" source="EfU0JayARY2HxQ_avZjF-9" target="EfU0JayARY2HxQ_avZjF-1">
          <mxGeometry relative="1" as="geometry" />
        </mxCell>
        <mxCell id="EfU0JayARY2HxQ_avZjF-9" value="Nome" style="ellipse;whiteSpace=wrap;html=1;align=center;" vertex="1" parent="1">
          <mxGeometry x="150" y="360" width="100" height="40" as="geometry" />
        </mxCell>
        <mxCell id="EfU0JayARY2HxQ_avZjF-15" style="edgeStyle=orthogonalEdgeStyle;rounded=0;orthogonalLoop=1;jettySize=auto;html=1;entryX=0.5;entryY=0;entryDx=0;entryDy=0;endArrow=none;endFill=0;" edge="1" parent="1" source="EfU0JayARY2HxQ_avZjF-12" target="EfU0JayARY2HxQ_avZjF-2">
          <mxGeometry relative="1" as="geometry" />
        </mxCell>
        <mxCell id="EfU0JayARY2HxQ_avZjF-12" value="CPF" style="ellipse;whiteSpace=wrap;html=1;align=center;fontStyle=4;" vertex="1" parent="1">
          <mxGeometry x="560" y="120" width="100" height="40" as="geometry" />
        </mxCell>
        <mxCell id="EfU0JayARY2HxQ_avZjF-13" value="Endereço" style="ellipse;whiteSpace=wrap;html=1;align=center;" vertex="1" parent="1">
          <mxGeometry x="690" y="270" width="100" height="40" as="geometry" />
        </mxCell>
        <mxCell id="EfU0JayARY2HxQ_avZjF-16" style="edgeStyle=orthogonalEdgeStyle;rounded=0;orthogonalLoop=1;jettySize=auto;html=1;entryX=0.25;entryY=1;entryDx=0;entryDy=0;endArrow=none;endFill=0;" edge="1" parent="1" source="EfU0JayARY2HxQ_avZjF-14" target="EfU0JayARY2HxQ_avZjF-2">
          <mxGeometry relative="1" as="geometry">
            <Array as="points">
              <mxPoint x="610" y="320" />
            </Array>
          </mxGeometry>
        </mxCell>
        <mxCell id="EfU0JayARY2HxQ_avZjF-14" value="Nome" style="ellipse;whiteSpace=wrap;html=1;align=center;" vertex="1" parent="1">
          <mxGeometry x="560" y="380" width="100" height="40" as="geometry" />
        </mxCell>
        <mxCell id="EfU0JayARY2HxQ_avZjF-17" style="edgeStyle=orthogonalEdgeStyle;rounded=0;orthogonalLoop=1;jettySize=auto;html=1;endArrow=none;endFill=0;" edge="1" parent="1" source="EfU0JayARY2HxQ_avZjF-13" target="EfU0JayARY2HxQ_avZjF-2">
          <mxGeometry relative="1" as="geometry">
            <Array as="points">
              <mxPoint x="700" y="290" />
            </Array>
          </mxGeometry>
        </mxCell>
        <mxCell id="EfU0JayARY2HxQ_avZjF-18" value="Data" style="ellipse;whiteSpace=wrap;html=1;align=center;" vertex="1" parent="1">
          <mxGeometry x="355" y="120" width="100" height="40" as="geometry" />
        </mxCell>
        <mxCell id="EfU0JayARY2HxQ_avZjF-20" value="(0,n)" style="text;html=1;align=center;verticalAlign=middle;resizable=0;points=[];autosize=1;strokeColor=none;fillColor=none;" vertex="1" parent="1">
          <mxGeometry x="265" y="288" width="50" height="30" as="geometry" />
        </mxCell>
        <mxCell id="EfU0JayARY2HxQ_avZjF-21" value="(0,n)" style="text;html=1;align=center;verticalAlign=middle;resizable=0;points=[];autosize=1;strokeColor=none;fillColor=none;" vertex="1" parent="1">
          <mxGeometry x="485" y="288" width="50" height="30" as="geometry" />
        </mxCell>
      </root>
    </mxGraphModel>
  </diagram>
</mxfile>
